<svg xmlns="http://www.w3.org/2000/svg" xmlns:xlink="http://www.w3.org/1999/xlink" width="0" height="0" style="display:none;">
<symbol viewBox="0 0 24 24" id="ri-album-line"><path d="M12 20C16.4183 20 20 16.4183 20 12C20 7.58172 16.4183 4 12 4C7.58172 4 4 7.58172 4 12C4 16.4183 7.58172 20 12 20ZM12 22C6.47715 22 2 17.5228 2 12C2 6.47715 6.47715 2 12 2C17.5228 2 22 6.47715 22 12C22 17.5228 17.5228 22 12 22ZM12 14C13.1046 14 14 13.1046 14 12C14 10.8954 13.1046 10 12 10C10.8954 10 10 10.8954 10 12C10 13.1046 10.8954 14 12 14ZM12 16C9.79086 16 8 14.2091 8 12C8 9.79086 9.79086 8 12 8C14.2091 8 16 9.79086 16 12C16 14.2091 14.2091 16 12 16Z"></path></symbol>
<symbol viewBox="0 0 24 24" id="ri-arrow-down-s-line"><path d="M11.9999 13.1714L16.9497 8.22168L18.3639 9.63589L11.9999 15.9999L5.63599 9.63589L7.0502 8.22168L11.9999 13.1714Z"></path></symbol>
<symbol viewBox="0 0 24 24" id="ri-arrow-right-line"><path d="M16.1716 10.9999L10.8076 5.63589L12.2218 4.22168L20 11.9999L12.2218 19.778L10.8076 18.3638L16.1716 12.9999H4V10.9999H16.1716Z"></path></symbol>
<symbol viewBox="0 0 24 24" id="ri-arrow-right-up-line"><path d="M16.0037 9.41421L7.39712 18.0208L5.98291 16.6066L14.5895 8H7.00373V6H18.0037V17H16.0037V9.41421Z"></path></symbol>
<symbol viewBox="0 0 24 24" id="ri-bilibili-fill"><path d="M18.223 3.08609C18.7112 3.57424 18.7112 4.3657 18.223 4.85385L17.08 5.99622L18.25 5.99662C20.3211 5.99662 22 7.67555 22 9.74662V17.2466C22 19.3177 20.3211 20.9966 18.25 20.9966H5.75C3.67893 20.9966 2 19.3177 2 17.2466V9.74662C2 7.67555 3.67893 5.99662 5.75 5.99662L6.91625 5.99622L5.77466 4.85481C5.28651 4.36665 5.28651 3.5752 5.77466 3.08704C6.26282 2.59889 7.05427 2.59889 7.54243 3.08704L10.1941 5.73869C10.2729 5.81753 10.339 5.90428 10.3924 5.99638L13.6046 5.99661C13.6581 5.90407 13.7244 5.81691 13.8036 5.73774L16.4553 3.08609C16.9434 2.59793 17.7349 2.59793 18.223 3.08609ZM18.25 8.50662H5.75C5.09102 8.50662 4.55115 9.01654 4.50343 9.66333L4.5 9.75662V17.2566C4.5 17.9156 5.00992 18.4555 5.65671 18.5032L5.75 18.5066H18.25C18.909 18.5066 19.4489 17.9967 19.4966 17.3499L19.5 17.2566V9.75662C19.5 9.06626 18.9404 8.50662 18.25 8.50662ZM8.25 11.0066C8.94036 11.0066 9.5 11.5663 9.5 12.2566V13.5066C9.5 14.197 8.94036 14.7566 8.25 14.7566C7.55964 14.7566 7 14.197 7 13.5066V12.2566C7 11.5663 7.55964 11.0066 8.25 11.0066ZM15.75 11.0066C16.4404 11.0066 17 11.5663 17 12.2566V13.5066C17 14.197 16.4404 14.7566 15.75 14.7566C15.0596 14.7566 14.5 14.197 14.5 13.5066V12.2566C14.5 11.5663 15.0596 11.0066 15.75 11.0066Z"></path></symbol>
<symbol viewBox="0 0 24 24" id="ri-calendar-line"><path d="M9 1V3H15V1H17V3H21C21.5523 3 22 3.44772 22 4V20C22 20.5523 21.5523 21 21 21H3C2.44772 21 2 20.5523 2 20V4C2 3.44772 2.44772 3 3 3H7V1H9ZM20 11H4V19H20V11ZM7 5H4V9H20V5H17V7H15V5H9V7H7V5Z"></path></symbol>
<symbol viewBox="0 0 24 24" id="ri-code-s-slash-line"><path d="M24 12L18.3431 17.6569L16.9289 16.2426L21.1716 12L16.9289 7.75736L18.3431 6.34315L24 12ZM2.82843 12L7.07107 16.2426L5.65685 17.6569L0 12L5.65685 6.34315L7.07107 7.75736L2.82843 12ZM9.78845 21H7.66009L14.2116 3H16.3399L9.78845 21Z"></path></symbol>
<symbol viewBox="0 0 24 24" id="ri-database-2-line"><path d="M5 12.5C5 12.8134 5.46101 13.3584 6.53047 13.8931C7.91405 14.5849 9.87677 15 12 15C14.1232 15 16.0859 14.5849 17.4695 13.8931C18.539 13.3584 19 12.8134 19 12.5V10.3287C17.35 11.3482 14.8273 12 12 12C9.17273 12 6.64996 11.3482 5 10.3287V12.5ZM19 15.3287C17.35 16.3482 14.8273 17 12 17C9.17273 17 6.64996 16.3482 5 15.3287V17.5C5 17.8134 5.46101 18.3584 6.53047 18.8931C7.91405 19.5849 9.87677 20 12 20C14.1232 20 16.0859 19.5849 17.4695 18.8931C18.539 18.3584 19 17.8134 19 17.5V15.3287ZM3 17.5V7.5C3 5.01472 7.02944 3 12 3C16.9706 3 21 5.01472 21 7.5V17.5C21 19.9853 16.9706 22 12 22C7.02944 22 3 19.9853 3 17.5ZM12 10C14.1232 10 16.0859 9.58492 17.4695 8.89313C18.539 8.3584 19 7.81342 19 7.5C19 7.18658 18.539 6.6416 17.4695 6.10687C16.0859 5.41508 14.1232 5 12 5C9.87677 5 7.91405 5.41508 6.53047 6.10687C5.46101 6.6416 5 7.18658 5 7.5C5 7.81342 5.46101 8.3584 6.53047 8.89313C7.91405 9.58492 9.87677 10 12 10Z"></path></symbol>
<symbol viewBox="0 0 24 24" id="ri-git-branch-line"><path d="M7.10508 15.2101C8.21506 15.6501 9 16.7334 9 18C9 19.6569 7.65685 21 6 21C4.34315 21 3 19.6569 3 18C3 16.6938 3.83481 15.5825 5 15.1707V8.82929C3.83481 8.41746 3 7.30622 3 6C3 4.34315 4.34315 3 6 3C7.65685 3 9 4.34315 9 6C9 7.30622 8.16519 8.41746 7 8.82929V11.9996C7.83566 11.3719 8.87439 11 10 11H14C15.3835 11 16.5482 10.0635 16.8949 8.78991C15.7849 8.34988 15 7.26661 15 6C15 4.34315 16.3431 3 18 3C19.6569 3 21 4.34315 21 6C21 7.3332 20.1303 8.46329 18.9274 8.85392C18.5222 11.2085 16.4703 13 14 13H10C8.61653 13 7.45179 13.9365 7.10508 15.2101ZM6 17C5.44772 17 5 17.4477 5 18C5 18.5523 5.44772 19 6 19C6.55228 19 7 18.5523 7 18C7 17.4477 6.55228 17 6 17ZM6 5C5.44772 5 5 5.44772 5 6C5 6.55228 5.44772 7 6 7C6.55228 7 7 6.55228 7 6C7 5.44772 6.55228 5 6 5ZM18 5C17.4477 5 17 5.44772 17 6C17 6.55228 17.4477 7 18 7C18.5523 7 19 6.55228 19 6C19 5.44772 18.5523 5 18 5Z"></path></symbol>
<symbol viewBox="0 0 24 24" id="ri-github-fill"><path d="M12.001 2C6.47598 2 2.00098 6.475 2.00098 12C2.00098 16.425 4.86348 20.1625 8.83848 21.4875C9.33848 21.575 9.52598 21.275 9.52598 21.0125C9.52598 20.775 9.51348 19.9875 9.51348 19.15C7.00098 19.6125 6.35098 18.5375 6.15098 17.975C6.03848 17.6875 5.55098 16.8 5.12598 16.5625C4.77598 16.375 4.27598 15.9125 5.11348 15.9C5.90098 15.8875 6.46348 16.625 6.65098 16.925C7.55098 18.4375 8.98848 18.0125 9.56348 17.75C9.65098 17.1 9.91348 16.6625 10.201 16.4125C7.97598 16.1625 5.65098 15.3 5.65098 11.475C5.65098 10.3875 6.03848 9.4875 6.67598 8.7875C6.57598 8.5375 6.22598 7.5125 6.77598 6.1375C6.77598 6.1375 7.61348 5.875 9.52598 7.1625C10.326 6.9375 11.176 6.825 12.026 6.825C12.876 6.825 13.726 6.9375 14.526 7.1625C16.4385 5.8625 17.276 6.1375 17.276 6.1375C17.826 7.5125 17.476 8.5375 17.376 8.7875C18.0135 9.4875 18.401 10.375 18.401 11.475C18.401 15.3125 16.0635 16.1625 13.8385 16.4125C14.201 16.725 14.5135 17.325 14.5135 18.2625C14.5135 19.6 14.501 20.675 14.501 21.0125C14.501 21.275 14.6885 21.5875 15.1885 21.4875C19.259 20.1133 21.9999 16.2963 22.001 12C22.001 6.475 17.526 2 12.001 2Z"></path></symbol>
<symbol viewBox="0 0 24 24" id="ri-loader-4-line"><path d="M18.364 5.63604L16.9497 7.05025C15.683 5.7835 13.933 5 12 5C8.13401 5 5 8.13401 5 12C5 15.866 8.13401 19 12 19C15.866 19 19 15.866 19 12H21C21 16.9706 16.9706 21 12 21C7.02944 21 3 16.9706 3 12C3 7.02944 7.02944 3 12 3C14.4853 3 16.7353 4.00736 18.364 5.63604Z"></path></symbol>
<symbol viewBox="0 0 24 24" id="ri-mail-fill"><path d="M3 3H21C21.5523 3 22 3.44772 22 4V20C22 20.5523 21.5523 21 21 21H3C2.44772 21 2 20.5523 2 20V4C2 3.44772 2.44772 3 3 3ZM12.0606 11.6829L5.64722 6.2377L4.35278 7.7623L12.0731 14.3171L19.6544 7.75616L18.3456 6.24384L12.0606 11.6829Z"></path></symbol>
<symbol viewBox="0 0 24 24" id="ri-moon-line"><path d="M10 7C10 10.866 13.134 14 17 14C18.9584 14 20.729 13.1957 21.9995 11.8995C22 11.933 22 11.9665 22 12C22 17.5228 17.5228 22 12 22C6.47715 22 2 17.5228 2 12C2 6.47715 6.47715 2 12 2C12.0335 2 12.067 2 12.1005 2.00049C10.8043 3.27098 10 5.04157 10 7ZM4 12C4 16.4183 7.58172 20 12 20C15.0583 20 17.7158 18.2839 19.062 15.7621C18.3945 15.9187 17.7035 16 17 16C12.0294 16 8 11.9706 8 7C8 6.29648 8.08133 5.60547 8.2379 4.938C5.71611 6.28423 4 8.9417 4 12Z"></path></symbol>
<symbol viewBox="0 0 24 24" id="ri-music-2-line"><path d="M20 3V17C20 19.2091 18.2091 21 16 21C13.7909 21 12 19.2091 12 17C12 14.7909 13.7909 13 16 13C16.7286 13 17.4117 13.1948 18 13.5351V5H9V17C9 19.2091 7.20914 21 5 21C2.79086 21 1 19.2091 1 17C1 14.7909 2.79086 13 5 13C5.72857 13 6.41165 13.1948 7 13.5351V3H20ZM5 19C6.10457 19 7 18.1046 7 17C7 15.8954 6.10457 15 5 15C3.89543 15 3 15.8954 3 17C3 18.1046 3.89543 19 5 19ZM16 19C17.1046 19 18 18.1046 18 17C18 15.8954 17.1046 15 16 15C14.8954 15 14 15.8954 14 17C14 18.1046 14.8954 19 16 19Z"></path></symbol>
<symbol viewBox="0 0 24 24" id="ri-pause-fill"><path d="M6 5H8V19H6V5ZM16 5H18V19H16V5Z"></path></symbol>
<symbol viewBox="0 0 24 24" id="ri-play-fill"><path d="M19.376 12.4161L8.77735 19.4818C8.54759 19.635 8.23715 19.5729 8.08397 19.3432C8.02922 19.261 8 19.1645 8 19.0658V4.93433C8 4.65818 8.22386 4.43433 8.5 4.43433C8.59871 4.43433 8.69522 4.46355 8.77735 4.5183L19.376 11.584C19.6057 11.7372 19.6678 12.0477 19.5146 12.2774C19.478 12.3323 19.4309 12.3795 19.376 12.4161Z"></path></symbol>
<symbol viewBox="0 0 24 24" id="ri-play-list-line"><path d="M2 18H12V20H2V18ZM2 11H16V13H2V11ZM2 4H22V6H2V4ZM19 15.1707V9H24V11H21V18C21 19.6569 19.6569 21 18 21C16.3431 21 15 19.6569 15 18C15 16.3431 16.3431 15 18 15C18.3506 15 18.6872 15.0602 19 15.1707ZM18 19C18.5523 19 19 18.5523 19 18C19 17.4477 18.5523 17 18 17C17.4477 17 17 17.4477 17 18C17 18.5523 17.4477 19 18 19Z"></path></symbol>
<symbol viewBox="0 0 24 24" id="ri-quill-pen-line"><path d="M6.93912 14.0328C6.7072 14.6563 6.51032 15.2331 6.33421 15.8155C7.29345 15.1189 8.43544 14.6767 9.75193 14.5121C12.2652 14.198 14.4976 12.5385 15.6279 10.4537L14.1721 8.99888L15.5848 7.58417C15.9185 7.25004 16.2521 6.91614 16.5858 6.58248C17.0151 6.15312 17.5 5.35849 18.0129 4.2149C12.4197 5.08182 8.99484 8.50647 6.93912 14.0328ZM17 8.99739L18 9.99669C17 12.9967 14 15.9967 10 16.4967C7.33146 16.8303 5.66421 18.6636 4.99824 21.9967H3C4 15.9967 6 1.99669 21 1.99669C20.0009 4.99402 19.0018 6.99313 18.0027 7.99402C17.6662 8.33049 17.3331 8.66382 17 8.99739Z"></path></symbol>
<symbol viewBox="0 0 24 24" id="ri-repeat-line"><path d="M6 4H21C21.5523 4 22 4.44772 22 5V12H20V6H6V9L1 5L6 1V4ZM18 20H3C2.44772 20 2 19.5523 2 19V12H4V18H18V15L23 19L18 23V20Z"></path></symbol>
<symbol viewBox="0 0 24 24" id="ri-shuffle-line"><path d="M18 17.8832V16L23 19L18 22V19.9095C14.9224 19.4698 12.2513 17.4584 11.0029 14.5453L11 14.5386L10.9971 14.5453C9.57893 17.8544 6.32508 20 2.72483 20H2V18H2.72483C5.52503 18 8.05579 16.3312 9.15885 13.7574L9.91203 12L9.15885 10.2426C8.05579 7.66878 5.52503 6 2.72483 6H2V4H2.72483C6.32508 4 9.57893 6.14557 10.9971 9.45473L11 9.46141L11.0029 9.45473C12.2513 6.5416 14.9224 4.53022 18 4.09051V2L23 5L18 8V6.11684C15.7266 6.53763 13.7737 8.0667 12.8412 10.2426L12.088 12L12.8412 13.7574C13.7737 15.9333 15.7266 17.4624 18 17.8832Z"></path></symbol>
<symbol viewBox="0 0 24 24" id="ri-skip-back-line"><path d="M7 4C7.55228 4 8 4.44772 8 5V11.3333L18.2227 4.51823C18.4524 4.36506 18.7628 4.42714 18.916 4.65691C18.9708 4.73904 19 4.83555 19 4.93426V19.0657C19 19.3419 18.7761 19.5657 18.5 19.5657C18.4013 19.5657 18.3048 19.5365 18.2227 19.4818L8 12.6667V19C8 19.5523 7.55228 20 7 20C6.44772 20 6 19.5523 6 19V5C6 4.44772 6.44772 4 7 4ZM17 7.73703L10.6056 12L17 16.263V7.73703Z"></path></symbol>
<symbol viewBox="0 0 24 24" id="ri-skip-forward-line"><path d="M16 12.6667L5.77735 19.4818C5.54759 19.6349 5.23715 19.5729 5.08397 19.3431C5.02922 19.261 5 19.1645 5 19.0657V4.93426C5 4.65812 5.22386 4.43426 5.5 4.43426C5.59871 4.43426 5.69522 4.46348 5.77735 4.51823L16 11.3333V5C16 4.44772 16.4477 4 17 4C17.5523 4 18 4.44772 18 5V19C18 19.5523 17.5523 20 17 20C16.4477 20 16 19.5523 16 19V12.6667ZM7 7.73703V16.263L13.3944 12L7 7.73703Z"></path></symbol>
<symbol viewBox="0 0 24 24" id="ri-stack-line"><path d="M20.0833 15.1999L21.2854 15.9212C21.5221 16.0633 21.5989 16.3704 21.4569 16.6072C21.4146 16.6776 21.3557 16.7365 21.2854 16.7787L12.5144 22.0412C12.1977 22.2313 11.8021 22.2313 11.4854 22.0412L2.71451 16.7787C2.47772 16.6366 2.40093 16.3295 2.54301 16.0927C2.58523 16.0223 2.64413 15.9634 2.71451 15.9212L3.9166 15.1999L11.9999 20.0499L20.0833 15.1999ZM20.0833 10.4999L21.2854 11.2212C21.5221 11.3633 21.5989 11.6704 21.4569 11.9072C21.4146 11.9776 21.3557 12.0365 21.2854 12.0787L11.9999 17.6499L2.71451 12.0787C2.47772 11.9366 2.40093 11.6295 2.54301 11.3927C2.58523 11.3223 2.64413 11.2634 2.71451 11.2212L3.9166 10.4999L11.9999 15.3499L20.0833 10.4999ZM12.5144 1.30864L21.2854 6.5712C21.5221 6.71327 21.5989 7.0204 21.4569 7.25719C21.4146 7.32757 21.3557 7.38647 21.2854 7.42869L11.9999 12.9999L2.71451 7.42869C2.47772 7.28662 2.40093 6.97949 2.54301 6.7427C2.58523 6.67232 2.64413 6.61343 2.71451 6.5712L11.4854 1.30864C11.8021 1.11864 12.1977 1.11864 12.5144 1.30864ZM11.9999 3.33233L5.88723 6.99995L11.9999 10.6676L18.1126 6.99995L11.9999 3.33233Z"></path></symbol>
<symbol viewBox="0 0 24 24" id="ri-sun-line"><path d="M12 18C8.68629 18 6 15.3137 6 12C6 8.68629 8.68629 6 12 6C15.3137 6 18 8.68629 18 12C18 15.3137 15.3137 18 12 18ZM12 16C14.2091 16 16 14.2091 16 12C16 9.79086 14.2091 8 12 8C9.79086 8 8 9.79086 8 12C8 14.2091 9.79086 16 12 16ZM11 1H13V4H11V1ZM11 20H13V23H11V20ZM3.51472 4.92893L4.92893 3.51472L7.05025 5.63604L5.63604 7.05025L3.51472 4.92893ZM16.9497 18.364L18.364 16.9497L20.4853 19.0711L19.0711 20.4853L16.9497 18.364ZM19.0711 3.51472L20.4853 4.92893L18.364 7.05025L16.9497 5.63604L19.0711 3.51472ZM5.63604 16.9497L7.05025 18.364L4.92893 20.4853L3.51472 19.0711L5.63604 16.9497ZM23 11V13H20V11H23ZM4 11V13H1V11H4Z"></path></symbol>
<symbol viewBox="0 0 24 24" id="ri-telegram-fill"><path d="M22 12C22 17.5228 17.5228 22 12 22C6.47715 22 2 17.5228 2 12C2 6.47715 6.47715 2 12 2C17.5228 2 22 6.47715 22 12ZM12.3584 9.38246C11.3857 9.78702 9.4418 10.6244 6.5266 11.8945C6.05321 12.0827 5.80524 12.2669 5.78266 12.4469C5.74451 12.7513 6.12561 12.8711 6.64458 13.0343C6.71517 13.0565 6.78832 13.0795 6.8633 13.1039C7.37388 13.2698 8.06071 13.464 8.41776 13.4717C8.74164 13.4787 9.10313 13.3452 9.50222 13.0711C12.226 11.2325 13.632 10.3032 13.7203 10.2832C13.7826 10.269 13.8689 10.2513 13.9273 10.3032C13.9858 10.3552 13.98 10.4536 13.9739 10.48C13.9361 10.641 12.4401 12.0318 11.666 12.7515C11.4351 12.9661 11.2101 13.1853 10.9833 13.4039C10.509 13.8611 10.1533 14.204 11.003 14.764C11.8644 15.3317 12.7323 15.8982 13.5724 16.4971C13.9867 16.7925 14.359 17.0579 14.8188 17.0156C15.0861 16.991 15.3621 16.7397 15.5022 15.9903C15.8335 14.2193 16.4847 10.3821 16.6352 8.80083C16.6484 8.6623 16.6318 8.485 16.6185 8.40717C16.6052 8.32934 16.5773 8.21844 16.4762 8.13635C16.3563 8.03913 16.1714 8.01863 16.0887 8.02009C15.7125 8.02672 15.1355 8.22737 12.3584 9.38246Z"></path></symbol>
<symbol viewBox="0 0 24 24" id="ri-terminal-line"><path d="M10.9999 12L3.92886 19.0711L2.51465 17.6569L8.1715 12L2.51465 6.34317L3.92886 4.92896L10.9999 12ZM10.9999 19H20.9999V21H10.9999V19Z"></path></symbol>
<symbol viewBox="0 0 24 24" id="ri-volume-down-line"><path d="M13 7.22056L9.60282 10.0001H6V14.0001H9.60282L13 16.7796V7.22056ZM8.88889 16.0001H5C4.44772 16.0001 4 15.5524 4 15.0001V9.00007C4 8.44778 4.44772 8.00007 5 8.00007H8.88889L14.1834 3.66821C14.3971 3.49335 14.7121 3.52485 14.887 3.73857C14.9601 3.8279 15 3.93977 15 4.05519V19.9449C15 20.2211 14.7761 20.4449 14.5 20.4449C14.3846 20.4449 14.2727 20.405 14.1834 20.3319L8.88889 16.0001ZM18.8631 16.5911L17.4411 15.1691C18.3892 14.4376 19 13.2902 19 12.0001C19 10.5697 18.2493 9.31476 17.1203 8.60766L18.5589 7.16906C20.0396 8.26166 21 10.0187 21 12.0001C21 13.8422 20.1698 15.4905 18.8631 16.5911Z"></path></symbol>
<symbol viewBox="0 0 24 24" id="ri-volume-mute-line"><path d="M10 7.22056L6.60282 10.0001H3V14.0001H6.60282L10 16.7796V7.22056ZM5.88889 16.0001H2C1.44772 16.0001 1 15.5524 1 15.0001V9.00007C1 8.44778 1.44772 8.00007 2 8.00007H5.88889L11.1834 3.66821C11.3971 3.49335 11.7121 3.52485 11.887 3.73857C11.9601 3.8279 12 3.93977 12 4.05519V19.9449C12 20.2211 11.7761 20.4449 11.5 20.4449C11.3846 20.4449 11.2727 20.405 11.1834 20.3319L5.88889 16.0001ZM20.4142 12.0001L23.9497 15.5356L22.5355 16.9498L19 13.4143L15.4645 16.9498L14.0503 15.5356L17.5858 12.0001L14.0503 8.46454L15.4645 7.05032L19 10.5859L22.5355 7.05032L23.9497 8.46454L20.4142 12.0001Z"></path></symbol>
<symbol viewBox="0 0 24 24" id="ri-volume-up-line"><path d="M6.60282 10.0001L10 7.22056V16.7796L6.60282 14.0001H3V10.0001H6.60282ZM2 16.0001H5.88889L11.1834 20.3319C11.2727 20.405 11.3846 20.4449 11.5 20.4449C11.7761 20.4449 12 20.2211 12 19.9449V4.05519C12 3.93977 11.9601 3.8279 11.887 3.73857C11.7121 3.52485 11.3971 3.49335 11.1834 3.66821L5.88889 8.00007H2C1.44772 8.00007 1 8.44778 1 9.00007V15.0001C1 15.5524 1.44772 16.0001 2 16.0001ZM23 12C23 15.292 21.5539 18.2463 19.2622 20.2622L17.8445 18.8444C19.7758 17.1937 21 14.7398 21 12C21 9.26016 19.7758 6.80629 17.8445 5.15557L19.2622 3.73779C21.5539 5.75368 23 8.70795 23 12ZM18 12C18 10.0883 17.106 8.38548 15.7133 7.28673L14.2842 8.71584C15.3213 9.43855 16 10.64 16 12C16 13.36 15.3213 14.5614 14.2842 15.2841L15.7133 16.7132C17.106 15.6145 18 13.9116 18 12Z"></path></symbol>
<symbol viewBox="0 0 24 24" id="ri-vuejs-line"><path d="M3.31677 3L12.001 18L20.6852 3H23.001L12.001 22L1.00098 3H3.31677ZM7.65887 3L12.001 10.5L16.3431 3H18.6589L12.001 14.5L5.34308 3H7.65887Z"></path></symbol>
</svg>