<svg xmlns="http://www.w3.org/2000/svg" viewBox="0 0 24 24" fill="currentColor">
  <path d="M14.23 12.004c0 .733-.593 1.327-1.325 1.327-.732 0-1.326-.594-1.326-1.327 0-.731.594-1.325 极速电竞APP下载1.326-1.325.732 0 1.325.594 1.325 1.325zm-2.065-2.904c-1.298 0-2.35 1.052-2.35 2.35 0 1.298 1.052 2.35 2.35 2.35 1.298 0 2.35-1.052 2.35-2.35 0-1.298-1.052-2.35-2.35-2.35zm-2.35 2.35c0-2.598 2.107-4.705 4.705-4.705 2.598 0 4.705 2.107 4.705 4.705 0 2.极速电竞APP下载598-2.107 4.705-4.705 极速电竞APP下载4.705-2.598 0-4.705-2.107-4.705-4.705z"/>
  <path d="M12 6.654c-2.93 0-5.346 2.416-5.346 5.346s2.416 5.346 5.346 5.346 5.346-2.416 5.346-5.346-2.416-5.346-5.346-5.346zm0 9.692c-2.398 0-4.346-1.948-4.346-4.346s1.948-4.346 4.346-4.346 4.346 1.948 4.346 4.346-1.948 4.346-4.346 4.346z"/>
  <path d="M12 2.5c-5.246 0-9.5 4.254-9.5 9.5s4.254 9.5 9.5 9.5 9.5-极速电竞APP下载4.254 9.5-9.5-4.254-9.5-9.5-9.5zm0 17c-4.136 0-7.5-3.364-7.5-7.5s3.364-7.5 7.5-7.5 7.5 3.364 7.5 7.5-3.364 7.5-7.5 7.5z"/>
</svg>